<svg xmlns="http://www.w3.org/2000/svg" viewBox="0 0 24 24" width="24" height="24" fill="#d4ad78">
  <path d="M19.54 5.34A16.5 16.5 0 0 0 15.44 4l-.5 1.02a15.15 15.15 0 0 0-5.88 0L8.56 4a16.5 16.5 0 0 0-4.1 1.34C1.86 9.23 1.16 13 1.5 16.72a16.9 16.9 0 0 0 5.03 2.54l1.23-1.67a10.8 10.8 0 0 1-1.94-.93l.48-.37a12.05 12.05 0 0 0 11.4 0l.48.37c-.62.36-1.27.67-1.94.93l1.23 1.67a16.9 16.9 0 0 0 5.03-2.54c.4-4.32-.68-8.05-2.96-11.38ZM8.9 14.75c-1.35 0-2.44-1.22-2.44-2.72S7.53 9.3 8.9 9.3s2.46 1.23 2.44 2.73c0 1.5-1.08 2.72-2.44 2.72Zm6.2 0c-1.35 0-2.44-1.22-2.44-2.72s1.07-2.73 2.44-2.73 2.46 1.23 2.44 2.73c0 1.5-1.08 2.72-2.44 2.72Z"/>
</svg>
