<svg xmlns="http://www.w3.org/2000/svg" viewBox="0 0 16 16" fill="#d4ad78">
<path d="M0 1.146C0 .513.526 0 1.175 0h13.65C15.474 0 16 .513 16 1.146v13.708C16 15.487 15.474 16 14.825 16H1.175C.526 16 0 15.487 0 14.854V1.146zm4.943 12.248V6.169H2.542v7.225h2.401zm-1.2-8.212c.837 0 1.358-.554 1.358-1.248-.015-.709-.521-1.248-1.342-1.248-.822 0-1.359.54-1.359 1.248 0 .694.521 1.248 1.327 1.248h.016zm3.167 8.212h2.4V9.359c0-.205.015-.41.075-.557.164-.41.537-.835 1.163-.835.821 0 1.149.63 1.149 1.554v3.873h2.4V9.244c0-2.22-1.179-3.252-2.75-3.252-1.27 0-1.845.7-2.165 1.193h.03V6.169h-2.4c.03.678 0 7.225 0 7.225z"/>
</svg>